<?xml version="1.0" encoding="utf-8"?>
<!-- Generator: Adobe Illustrator 23.0.1, SVG Export Plug-In . SVG Version: 6.00 Build 0)  -->
<svg version="1.1" id="Layer_1" xmlns="http://www.w3.org/2000/svg" xmlns:xlink="http://www.w3.org/1999/xlink" x="0px" y="0px"
	 viewBox="0 0 24 24" style="enable-background:new 0 0 24 24;" xml:space="preserve">
<style type="text/css">
	.st0{clip-path:url(#SVGID_2_);}
	.st1{clip-path:url(#SVGID_4_);fill:#323E48;}
	.st2{clip-path:url(#SVGID_6_);}
	.st3{clip-path:url(#SVGID_8_);fill:#323E48;}
	.st4{clip-path:url(#SVGID_10_);}
	.st5{clip-path:url(#SVGID_12_);fill:#323E48;}
	.st6{clip-path:url(#SVGID_14_);}
	.st7{clip-path:url(#SVGID_16_);fill:#323E48;}
	.st8{clip-path:url(#SVGID_18_);}
	.st9{clip-path:url(#SVGID_20_);fill:#323E48;}
</style>
<g>
	<g>
		<g>
			<defs>
				<path id="SVGID_1_" d="M14.9,5.4V1.6l3.7,3.8H14.9z M19.7,5.4l-4.8-4.9H5.6c-0.7,0-1.3,0.6-1.3,1.4v21.6h14.1
					c0.7,0,1.3-0.6,1.3-1.4V7.3h-0.8v14.8c0,0.3-0.2,0.5-0.5,0.5H5.1V1.9c0-0.3,0.2-0.5,0.5-0.5h8.5v4.9h5.6V5.4z"/>
			</defs>
			<clipPath id="SVGID_2_">
				<use xlink:href="#SVGID_1_"  style="overflow:visible;"/>
			</clipPath>
			<g class="st0">
				<g>
					<defs>
						<rect id="SVGID_3_" x="-338" y="-1062.5" width="1280" height="1989"/>
					</defs>
					<clipPath id="SVGID_4_">
						<use xlink:href="#SVGID_3_"  style="overflow:visible;"/>
					</clipPath>
					<rect x="-0.7" y="-4.5" class="st1" width="25.5" height="33"/>
				</g>
			</g>
		</g>
	</g>
	<g>
		<g>
			<defs>
				<path id="SVGID_5_" d="M12.3,10.9v1.6H6.9v-1.6H12.3z M17.1,12.5h-1.6v-1.6h1.6V12.5z M15.5,17.5v-1.6h1.6v1.6H15.5z M6.9,15.8
					h5.3v1.6H6.9V15.8z M12.3,15H6.9v-1.6h5.3L12.3,15L12.3,15z M14.7,15.8v1.6h-1.6v-1.6C13.1,15.8,14.7,15.8,14.7,15.8z
					 M15.5,13.4h1.6V15h-1.6V13.4z M13.1,12.5v-1.6h1.6v1.6H13.1z M14.7,13.4V15h-1.6v-1.6H14.7z M6.1,10.9v7.4h11.7v-8.2H6.1V10.9z
					"/>
			</defs>
			<clipPath id="SVGID_6_">
				<use xlink:href="#SVGID_5_"  style="overflow:visible;"/>
			</clipPath>
			<g class="st2">
				<g>
					<defs>
						<rect id="SVGID_7_" x="-338" y="-1062.5" width="1280" height="1989"/>
					</defs>
					<clipPath id="SVGID_8_">
						<use xlink:href="#SVGID_7_"  style="overflow:visible;"/>
					</clipPath>
					<rect x="1.1" y="5.1" class="st3" width="21.7" height="18.2"/>
				</g>
			</g>
		</g>
	</g>
	<g>
		<g>
			<defs>
				<rect id="SVGID_9_" x="6.1" y="7.6" width="4.3" height="0.8"/>
			</defs>
			<clipPath id="SVGID_10_">
				<use xlink:href="#SVGID_9_"  style="overflow:visible;"/>
			</clipPath>
			<g class="st4">
				<g>
					<defs>
						<rect id="SVGID_11_" x="-338" y="-1062.5" width="1280" height="1989"/>
					</defs>
					<clipPath id="SVGID_12_">
						<use xlink:href="#SVGID_11_"  style="overflow:visible;"/>
					</clipPath>
					<rect x="1.1" y="2.6" class="st5" width="14.3" height="10.8"/>
				</g>
			</g>
		</g>
	</g>
	<g>
		<g>
			<defs>
				<rect id="SVGID_13_" x="6.1" y="6.2" width="5.1" height="0.8"/>
			</defs>
			<clipPath id="SVGID_14_">
				<use xlink:href="#SVGID_13_"  style="overflow:visible;"/>
			</clipPath>
			<g class="st6">
				<g>
					<defs>
						<rect id="SVGID_15_" x="-338" y="-1062.5" width="1280" height="1989"/>
					</defs>
					<clipPath id="SVGID_16_">
						<use xlink:href="#SVGID_15_"  style="overflow:visible;"/>
					</clipPath>
					<rect x="1.1" y="1.2" class="st7" width="15.1" height="10.8"/>
				</g>
			</g>
		</g>
	</g>
	<g>
		<g>
			<defs>
				<rect id="SVGID_17_" x="6.1" y="4.9" width="3.7" height="0.8"/>
			</defs>
			<clipPath id="SVGID_18_">
				<use xlink:href="#SVGID_17_"  style="overflow:visible;"/>
			</clipPath>
			<g class="st8">
				<g>
					<defs>
						<rect id="SVGID_19_" x="-338" y="-1062.5" width="1280" height="1989"/>
					</defs>
					<clipPath id="SVGID_20_">
						<use xlink:href="#SVGID_19_"  style="overflow:visible;"/>
					</clipPath>
					<rect x="1.1" y="-0.1" class="st9" width="13.7" height="10.8"/>
				</g>
			</g>
		</g>
	</g>
</g>
</svg>
