<?xml version="1.0" encoding="utf-8"?>
<!-- Generator: Adobe Illustrator 23.0.1, SVG Export Plug-In . SVG Version: 6.00 Build 0)  -->
<svg version="1.1" id="Layer_1" xmlns="http://www.w3.org/2000/svg" xmlns:xlink="http://www.w3.org/1999/xlink" x="0px" y="0px"
	 viewBox="0 0 24 24" style="enable-background:new 0 0 24 24;" xml:space="preserve">
<style type="text/css">
	.st0{clip-path:url(#SVGID_2_);}
	.st1{clip-path:url(#SVGID_4_);fill:#323E48;}
</style>
<g>
	<g>
		<defs>
			<path id="SVGID_1_" d="M21.7,6.3c-0.7,0.3-1.4,0.4-2.2,0.4V5c0.5-0.4,1.1-0.7,1.6-1c0.1,0,0.2,0,0.3,0c0.5,0,1,0.3,1.1,0.8
				C22.7,5.5,22.3,6.1,21.7,6.3L21.7,6.3z M15.7,6.9c-0.3,0-0.5-0.2-0.5-0.6c0-0.3,0.2-0.6,0.5-0.6s0.5,0.2,0.5,0.6
				C16.2,6.6,16,6.8,15.7,6.9L15.7,6.9z M23.3,4.6c-0.2-0.8-1-1.4-1.9-1.4c-0.2,0-0.4,0-0.5,0.1l0,0C20.4,3.5,20,3.7,19.5,4V2.4
				h-7.1l-11.8,12L1.1,15L6,20l0.5-0.6l-4.9-5l11-11.1h6v3.4C18,6.6,17.5,6.5,17,6.2c-0.1-0.7-0.6-1.2-1.3-1.3
				c-0.7,0-1.3,0.4-1.4,1.1c-0.1,0.7,0.2,1.3,0.8,1.6c0.6,0.2,1.3,0,1.7-0.6c0.6,0.2,1.2,0.4,1.8,0.5v1.9L7.2,21l0.5,0.6l11.8-12
				V7.5c0.9,0,1.7-0.1,2.5-0.4c0.5-0.1,0.9-0.5,1.2-1S23.5,5.1,23.3,4.6z"/>
		</defs>
		<clipPath id="SVGID_2_">
			<use xlink:href="#SVGID_1_"  style="overflow:visible;"/>
		</clipPath>
		<g class="st0">
			<g>
				<defs>
					<rect id="SVGID_3_" x="-337.5" y="-1019" width="1280" height="1989"/>
				</defs>
				<clipPath id="SVGID_4_">
					<use xlink:href="#SVGID_3_"  style="overflow:visible;"/>
				</clipPath>
				<rect x="-4.4" y="-2.6" class="st1" width="32.8" height="29.2"/>
			</g>
		</g>
	</g>
</g>
</svg>
