<svg xmlns="http://www.w3.org/2000/svg" viewBox="0 0 69.59 69.59"><defs><style>.cls-1{fill:#008e39;}.cls-2,.cls-3{fill:#fff;}.cls-3{fill-rule:evenodd;}</style></defs><title>pts-flex</title><g id="Layer_2" data-name="Layer 2"><g id="Layer_1-2" data-name="Layer 1"><path class="cls-1" d="M69.59,34.79a34.6,34.6,0,0,1-.69,6.88C62.58,45.69,52.46,55.23,26,56c-12.61.38-18.91-4.44-22-7.5-2.27-2.32-3.28-6-3.72-8.8A33.5,33.5,0,0,1,0,34.79a34.8,34.8,0,0,1,69.59,0M12.39,61.4A34.77,34.77,0,0,0,68.7,42.58C62.54,48.14,44.21,61.71,12.39,61.4"/><path class="cls-2" d="M27.51,42.84l-.22,1h.78L27.8,45H27l-1.51,6.55h-1.8L25.2,45h-.8l.27-1.19h.82l.31-1.36A1.89,1.89,0,0,1,26.88,41a3.52,3.52,0,0,1,1.32-.2l.63,0-.33,1.47h-.4A.57.57,0,0,0,27.51,42.84Z"/><path class="cls-2" d="M27.55,51.54,30,40.86h1.82L29.36,51.54Z"/><path class="cls-2" d="M33.55,48.06l-.29,1.28a2,2,0,0,0-.07.46c0,.33.17.49.51.49a.7.7,0,0,0,.54-.22,2.7,2.7,0,0,0,.4-1.08H36.4l-.14.62a2.55,2.55,0,0,1-2.84,2.09c-1.35,0-2-.55-2-1.64a4,4,0,0,1,.11-.85L32.25,46a2.76,2.76,0,0,1,1.27-1.86,3.26,3.26,0,0,1,1.74-.46,2,2,0,0,1,1.71.68,1.47,1.47,0,0,1,.26.89,3.2,3.2,0,0,1-.08.66l-.51,2.2Zm.53-2.22-.23.95h1.29l.23-.95a1.45,1.45,0,0,0,0-.32q0-.45-.48-.45C34.48,45.07,34.2,45.33,34.08,45.84Z"/><path class="cls-2" d="M39.45,47.34l-.54-3.54h1.86l.07,2.59,1.29-2.59h1.74l-2.21,3.54.7,4.2H40.42l-.15-3.13-1.6,3.13H36.8Z"/><path class="cls-3" d="M61,29.42a1.72,1.72,0,0,1,1.69,2.31L61.48,36.4a3.25,3.25,0,0,1-2.94,2.32H43.32l.31-1.18a3.44,3.44,0,0,1,3.1-2.44H57.21l.54-2h-11A1.72,1.72,0,0,1,45,30.75l.36-1.33Zm-15.2-1.75.36-1.35a3.17,3.17,0,0,1,2.87-2.27H64.21l-.31,1.18a3.44,3.44,0,0,1-3.1,2.44Z"/><path class="cls-3" d="M28,26.67l-.32,1.18h6.44q-1.47,5.52-3,11h4.38q1.48-5.52,3-11h4a3.45,3.45,0,0,0,3.11-2.45l.31-1.17H31.09A3.43,3.43,0,0,0,28,26.67"/><path class="cls-3" d="M22.48,33.52a3.23,3.23,0,0,0,2.93-2.31l1.25-4.67A1.72,1.72,0,0,0,25,24.23H11.75a3.43,3.43,0,0,0-3.1,2.44l-.32,1.18H21.7l-.55,2c-3.69,0-7.36,0-11,0a3.24,3.24,0,0,0-2.93,2.31c-.59,2.22-1.2,4.48-1.8,6.7H10c.53-2,.91-3.4,1.44-5.37Z"/></g></g></svg>