<svg xmlns="http://www.w3.org/2000/svg" viewBox="0 0 69.58 69.59"><defs><style>.cls-1{fill:#1b9dd9;}.cls-2,.cls-3{fill:#fff;}.cls-2{fill-rule:evenodd;}</style></defs><title>pts-smart</title><g id="Layer_2" data-name="Layer 2"><g id="Layer_1-2" data-name="Layer 1"><path class="cls-1" d="M69.58,34.79a34.6,34.6,0,0,1-.68,6.88C62.58,45.69,52.46,55.23,26,56c-12.61.38-18.91-4.44-22-7.5-2.27-2.32-3.28-6-3.73-8.8a34.79,34.79,0,1,1,69.23-4.94M12.39,61.4A34.77,34.77,0,0,0,68.7,42.58C62.54,48.14,44.21,61.71,12.39,61.4"/><path class="cls-2" d="M61,29.42a1.72,1.72,0,0,1,1.69,2.31L61.48,36.4a3.25,3.25,0,0,1-2.94,2.32H43.32l.31-1.18a3.43,3.43,0,0,1,3.1-2.44H57.21l.54-2h-11A1.72,1.72,0,0,1,45,30.75l.36-1.33Zm-15.2-1.75.36-1.35a3.17,3.17,0,0,1,2.87-2.27H64.21l-.31,1.18a3.44,3.44,0,0,1-3.1,2.44Z"/><path class="cls-2" d="M28,26.67l-.32,1.18h6.44q-1.47,5.52-3,11h4.38q1.48-5.52,3-11h4a3.45,3.45,0,0,0,3.11-2.45l.31-1.17H31.09A3.43,3.43,0,0,0,28,26.67"/><path class="cls-2" d="M22.48,33.52a3.23,3.23,0,0,0,2.93-2.31l1.25-4.67A1.72,1.72,0,0,0,25,24.23H11.75a3.43,3.43,0,0,0-3.1,2.44l-.32,1.18H21.7l-.55,2c-3.69,0-7.36,0-11,0a3.24,3.24,0,0,0-2.93,2.31c-.59,2.22-1.2,4.48-1.8,6.7H10c.53-2,.91-3.4,1.44-5.37Z"/><path class="cls-3" d="M16.91,48.57l.19-.81h1.67a6,6,0,0,0-.21,1.12c0,.31.18.47.54.47s.76-.29.89-.85a2.1,2.1,0,0,0,.06-.41.84.84,0,0,0-.35-.61l-1.25-1a1.91,1.91,0,0,1-.4-.5,1.27,1.27,0,0,1-.19-.7,2.87,2.87,0,0,1,.09-.66,2.5,2.5,0,0,1,2.8-2c1.24,0,1.86.42,1.86,1.27a2.35,2.35,0,0,1-.06.51l-.2.85H20.79a4.92,4.92,0,0,0,.16-.92c0-.32-.17-.47-.49-.47a.76.76,0,0,0-.8.69.83.83,0,0,0,.32.85l1.37,1.17a1.48,1.48,0,0,1,.4.51,2.07,2.07,0,0,1,0,1.21,3.84,3.84,0,0,1-.65,1.56,2.85,2.85,0,0,1-2.29.83c-1.31,0-2-.46-2-1.37A3,3,0,0,1,16.91,48.57Z"/><path class="cls-3" d="M22.76,50.48l1.79-7.75h1.81l-.12.52a3.08,3.08,0,0,1,1.68-.67,1.41,1.41,0,0,1,1.29.77,3.3,3.3,0,0,1,1.95-.77,1.19,1.19,0,0,1,1,.44,1.09,1.09,0,0,1,.23.7,2.64,2.64,0,0,1-.09.62l-1.42,6.14h-1.8l1.31-5.72a2.13,2.13,0,0,0,.08-.45c0-.3-.17-.46-.52-.46s-.78.33-.93,1l-1.31,5.64h-1.8l1.32-5.69a2.6,2.6,0,0,0,.08-.5c0-.31-.18-.47-.52-.47s-.78.31-.92.93l-1.32,5.73Z"/><path class="cls-3" d="M35.46,45.12H33.81a7.56,7.56,0,0,1,.35-1.25,1.79,1.79,0,0,1,.52-.71,3.29,3.29,0,0,1,2.11-.59,2.5,2.5,0,0,1,1.3.29,1.19,1.19,0,0,1,.65,1.08,1.27,1.27,0,0,1-.05.34l-1,4.31A8.13,8.13,0,0,0,37.44,50a.61.61,0,0,0,.16.47H35.71a.9.9,0,0,1-.06-.68,2.66,2.66,0,0,1-1.75.85c-.79,0-1.18-.38-1.18-1.12a5.16,5.16,0,0,1,.15-1A5.65,5.65,0,0,1,33.35,47a2.9,2.9,0,0,1,1.24-.9l2.11-.93q.18-.78.18-.87c.06-.34-.11-.51-.5-.51a.67.67,0,0,0-.62.3A4.72,4.72,0,0,0,35.46,45.12Zm.37,3.73.53-2.27-1,.57a1,1,0,0,0-.44.43,3.65,3.65,0,0,0-.27.86,2.39,2.39,0,0,0-.08.5c0,.23.1.35.31.35A1.93,1.93,0,0,0,35.83,48.85Z"/><path class="cls-3" d="M39,50.48l1.79-7.75h1.8l-.24,1a2.5,2.5,0,0,1,2-1.12l-.41,1.78a1.62,1.62,0,0,0-.57-.12c-.79,0-1.31.56-1.56,1.67l-1,4.55Z"/><path class="cls-3" d="M45.94,42.73l.65-2.79h1.8l-.65,2.79h1.08l-.28,1.2H47.45l-1,4.42a1.69,1.69,0,0,0-.06.38c0,.31.23.46.68.46h.32l-.3,1.29a4.26,4.26,0,0,1-1,.09c-1.11,0-1.67-.33-1.67-1a2.79,2.79,0,0,1,.09-.63l1.15-5h-1l.27-1.2Z"/></g></g></svg>