<svg xmlns="http://www.w3.org/2000/svg" viewBox="0 0 69.58 69.59"><defs><style>.cls-1{fill:#a31c5c;}.cls-2,.cls-3{fill:#fff;}.cls-3{fill-rule:evenodd;}</style></defs><title>pts-nar</title><g id="Layer_2" data-name="Layer 2"><g id="Layer_1-2" data-name="Layer 1"><path class="cls-1" d="M69.58,34.79a34.6,34.6,0,0,1-.68,6.88C62.58,45.69,52.46,55.23,26,56c-12.61.38-18.91-4.44-22-7.5-2.27-2.32-3.28-6-3.72-8.8A33.5,33.5,0,0,1,0,34.79a34.79,34.79,0,0,1,69.58,0M12.39,61.4A34.77,34.77,0,0,0,68.7,42.58C62.54,48.14,44.21,61.71,12.39,61.4"/><path class="cls-2" d="M27.41,50.35l1.78-7.74H31l-.17.57a3,3,0,0,1,1.74-.73,1.45,1.45,0,0,1,.92.29,1,1,0,0,1,.37.82,3.08,3.08,0,0,1-.13.74l-1.39,6.05H30.6l1.32-5.69a2,2,0,0,0,.07-.47c0-.31-.16-.46-.5-.46-.5,0-.83.34-1,1l-1.29,5.58Z"/><path class="cls-2" d="M36.94,45H35.29a8.64,8.64,0,0,1,.35-1.26,1.82,1.82,0,0,1,.53-.71,3.32,3.32,0,0,1,2.1-.59,2.58,2.58,0,0,1,1.3.29,1.18,1.18,0,0,1,.66,1.09,1.26,1.26,0,0,1,0,.33l-1,4.31a9.31,9.31,0,0,0-.26,1.42.6.6,0,0,0,.17.47H37.2a.9.9,0,0,1-.06-.68,2.63,2.63,0,0,1-1.76.85c-.78,0-1.18-.37-1.18-1.12a4.49,4.49,0,0,1,.16-1,5.62,5.62,0,0,1,.48-1.5A2.7,2.7,0,0,1,36.08,46l2.1-.94a8.46,8.46,0,0,0,.18-.87c.06-.34-.1-.51-.5-.51a.68.68,0,0,0-.62.3A4.68,4.68,0,0,0,36.94,45Zm.38,3.72.53-2.27-1,.57a1,1,0,0,0-.44.43,4.28,4.28,0,0,0-.28.86,2.25,2.25,0,0,0-.07.5c0,.23.1.35.3.35A2,2,0,0,0,37.32,48.72Z"/><path class="cls-2" d="M40.44,50.35l1.78-7.74H44l-.24,1a2.51,2.51,0,0,1,2-1.12l-.41,1.79a1.46,1.46,0,0,0-.58-.13c-.78,0-1.3.56-1.55,1.67l-1.05,4.55Z"/><path class="cls-3" d="M61,29.42a1.72,1.72,0,0,1,1.69,2.31L61.48,36.4a3.26,3.26,0,0,1-2.94,2.32H43.32l.31-1.18a3.43,3.43,0,0,1,3.1-2.44H57.21l.54-2h-11A1.72,1.72,0,0,1,45,30.75l.36-1.33ZM45.83,27.67l.37-1.35a3.17,3.17,0,0,1,2.87-2.27H64.21l-.31,1.18a3.44,3.44,0,0,1-3.1,2.44Z"/><path class="cls-3" d="M28,26.67l-.32,1.18h6.44l-3,11h4.38l3-11h4a3.42,3.42,0,0,0,3.1-2.45l.32-1.17H31.09A3.43,3.43,0,0,0,28,26.67"/><path class="cls-3" d="M22.48,33.52a3.24,3.24,0,0,0,2.93-2.31l1.25-4.67A1.72,1.72,0,0,0,25,24.23H11.75a3.43,3.43,0,0,0-3.1,2.44l-.32,1.18H21.7l-.55,2c-3.69,0-7.36,0-11,0a3.24,3.24,0,0,0-2.93,2.31c-.59,2.22-1.2,4.48-1.8,6.7H10c.53-2,.91-3.4,1.44-5.37Z"/></g></g></svg>