<svg xmlns="http://www.w3.org/2000/svg" viewBox="0 0 69.58 69.59"><defs><style>.cls-1{fill:#662483;}.cls-2,.cls-3{fill:#fff;}.cls-2{fill-rule:evenodd;}</style></defs><title>pts-express</title><g id="Layer_2" data-name="Layer 2"><g id="Layer_1-2" data-name="Layer 1"><path class="cls-1" d="M69.58,34.79a34.6,34.6,0,0,1-.68,6.88C62.58,45.69,52.46,55.23,26,56c-12.61.38-18.91-4.44-22-7.5-2.27-2.32-3.28-6-3.73-8.8a34.79,34.79,0,1,1,69.23-4.94M12.39,61.4A34.77,34.77,0,0,0,68.7,42.58C62.54,48.14,44.21,61.71,12.39,61.4"/><path class="cls-2" d="M61,29.42a1.72,1.72,0,0,1,1.69,2.31c-.38,1.39-.88,3.29-1.25,4.67a3.26,3.26,0,0,1-2.94,2.32H43.32l.31-1.18a3.43,3.43,0,0,1,3.1-2.44H57.21l.54-2h-11A1.72,1.72,0,0,1,45,30.75l.36-1.33ZM45.83,27.67l.37-1.35a3.17,3.17,0,0,1,2.87-2.27H64.21l-.31,1.18a3.44,3.44,0,0,1-3.1,2.44Z"/><path class="cls-2" d="M28,26.67l-.32,1.18h6.44q-1.47,5.52-3,11h4.38q1.48-5.52,3-11h4a3.42,3.42,0,0,0,3.1-2.45l.32-1.17H31.09A3.43,3.43,0,0,0,28,26.67"/><path class="cls-2" d="M22.48,33.52a3.24,3.24,0,0,0,2.93-2.31l1.25-4.67A1.72,1.72,0,0,0,25,24.23H11.75a3.43,3.43,0,0,0-3.1,2.44l-.32,1.18H21.7l-.55,2c-3.69,0-7.36,0-11,0a3.24,3.24,0,0,0-2.93,2.31c-.6,2.22-1.2,4.48-1.8,6.7H10c.53-2,.91-3.4,1.44-5.37Z"/><path class="cls-3" d="M15.55,46.18l-.29,1.27a2,2,0,0,0-.07.47q0,.48.51.48a.7.7,0,0,0,.54-.22,2.86,2.86,0,0,0,.4-1.08h1.75l-.13.62a2.56,2.56,0,0,1-2.85,2.09c-1.34,0-2-.55-2-1.64a3.35,3.35,0,0,1,.11-.84l.74-3.27a2.73,2.73,0,0,1,1.27-1.86,3.23,3.23,0,0,1,1.74-.46,2.06,2.06,0,0,1,1.71.68,1.5,1.5,0,0,1,.25.9,3.07,3.07,0,0,1-.07.65l-.52,2.21ZM16.08,44l-.23.95h1.29l.22-.95a1.57,1.57,0,0,0,.05-.32c0-.3-.16-.45-.49-.45S16.2,43.44,16.08,44Z"/><path class="cls-3" d="M21.45,45.45l-.55-3.54h1.87l.07,2.59,1.29-2.59h1.74l-2.21,3.54.69,4.21H22.42l-.15-3.14-1.61,3.14H18.8Z"/><path class="cls-3" d="M24.82,52.32l2.41-10.41H29l-.13.59a3.19,3.19,0,0,1,1.81-.74,1.26,1.26,0,0,1,.93.33A1.21,1.21,0,0,1,32,43a3.79,3.79,0,0,1-.11.82l-.93,4.1a3.16,3.16,0,0,1-.53,1.17,1.86,1.86,0,0,1-1.5.74,1.6,1.6,0,0,1-.89-.26,3.47,3.47,0,0,1-.61-.54l-.77,3.31ZM28.55,44l-.81,3.48a1.47,1.47,0,0,0,0,.33c0,.35.19.53.57.53a.88.88,0,0,0,.91-.8L30,44a1.39,1.39,0,0,0,0-.32c0-.35-.19-.53-.56-.53S28.69,43.4,28.55,44Z"/><path class="cls-3" d="M32.13,49.66l1.79-7.75h1.8l-.24,1a2.52,2.52,0,0,1,2-1.12l-.41,1.79a1.62,1.62,0,0,0-.57-.12c-.79,0-1.31.55-1.56,1.66l-1,4.56Z"/><path class="cls-3" d="M39.42,46.18l-.28,1.27a2.17,2.17,0,0,0-.08.47q0,.48.51.48a.67.67,0,0,0,.54-.22,2.7,2.7,0,0,0,.4-1.08h1.76l-.14.62a2.55,2.55,0,0,1-2.84,2.09c-1.34,0-2-.55-2-1.64a3.82,3.82,0,0,1,.1-.84l.74-3.27a2.76,2.76,0,0,1,1.27-1.86,3.28,3.28,0,0,1,1.74-.46,2,2,0,0,1,1.71.68,1.43,1.43,0,0,1,.26.9A3.07,3.07,0,0,1,43,44l-.52,2.21ZM40,44l-.22.95H41l.23-.95a1.45,1.45,0,0,0,0-.32q0-.45-.48-.45A.85.85,0,0,0,40,44Z"/><path class="cls-3" d="M43.46,47.75l.2-.82h1.66a6.12,6.12,0,0,0-.21,1.12c0,.31.18.47.55.47s.76-.28.89-.85a2,2,0,0,0,.06-.4.84.84,0,0,0-.35-.61L45,45.6a1.85,1.85,0,0,1-.4-.49,1.29,1.29,0,0,1-.19-.7,2.88,2.88,0,0,1,.09-.67,2.5,2.5,0,0,1,2.8-2c1.24,0,1.86.43,1.86,1.27a2.37,2.37,0,0,1-.06.52l-.2.85H47.35a5.77,5.77,0,0,0,.15-.93A.42.42,0,0,0,47,43a.77.77,0,0,0-.8.7.83.83,0,0,0,.32.85l1.37,1.16a1.68,1.68,0,0,1,.4.52,2.07,2.07,0,0,1,0,1.21A4,4,0,0,1,47.62,49a2.85,2.85,0,0,1-2.28.83c-1.31,0-2-.46-2-1.38A3,3,0,0,1,43.46,47.75Z"/><path class="cls-3" d="M49.5,47.75l.2-.82h1.66a6.12,6.12,0,0,0-.21,1.12c0,.31.18.47.55.47s.76-.28.89-.85a2,2,0,0,0,.06-.4.84.84,0,0,0-.35-.61L51,45.6a2.06,2.06,0,0,1-.4-.49,1.38,1.38,0,0,1-.19-.7,3.55,3.55,0,0,1,.09-.67,2.52,2.52,0,0,1,2.8-2c1.24,0,1.87.43,1.87,1.27a2.37,2.37,0,0,1-.06.52l-.2.85H53.39a5.77,5.77,0,0,0,.15-.93.42.42,0,0,0-.48-.47.78.78,0,0,0-.81.7.85.85,0,0,0,.32.85L54,45.69a1.52,1.52,0,0,1,.39.52,2.07,2.07,0,0,1,0,1.21A4,4,0,0,1,53.66,49a2.85,2.85,0,0,1-2.28.83c-1.31,0-2-.46-2-1.38A3,3,0,0,1,49.5,47.75Z"/></g></g></svg>