<?xml version="1.0" encoding="utf-8"?>
<!-- Generator: Adobe Illustrator 23.0.1, SVG Export Plug-In . SVG Version: 6.00 Build 0)  -->
<svg version="1.1" id="Layer_1" xmlns="http://www.w3.org/2000/svg" xmlns:xlink="http://www.w3.org/1999/xlink" x="0px" y="0px"
	 viewBox="0 0 24 24" style="enable-background:new 0 0 24 24;" xml:space="preserve">
<style type="text/css">
	.st0{clip-path:url(#SVGID_2_);}
	.st1{clip-path:url(#SVGID_4_);fill:#323E48;}
	.st2{clip-path:url(#SVGID_6_);}
	.st3{clip-path:url(#SVGID_8_);fill:#323E48;}
</style>
<g>
	<g>
		<g>
			<defs>
				<path id="SVGID_1_" d="M12,22.2C9.5,19,4.8,12.2,4.8,8.7c0.1-4,3.3-7.1,7.2-7.1s7.1,3.1,7.2,7.1C19.2,12.2,14.5,19,12,22.2
					L12,22.2z M12,0.5c-4.4,0-8,3.7-8,8.2c0,5,8,14.8,8,14.8s8-9.9,8-14.8C20,4.2,16.4,0.5,12,0.5z"/>
			</defs>
			<clipPath id="SVGID_2_">
				<use xlink:href="#SVGID_1_"  style="overflow:visible;"/>
			</clipPath>
			<g class="st0">
				<g>
					<defs>
						<rect id="SVGID_3_" x="-655" y="-1062.5" width="1280" height="1989"/>
					</defs>
					<clipPath id="SVGID_4_">
						<use xlink:href="#SVGID_3_"  style="overflow:visible;"/>
					</clipPath>
					<rect x="-1" y="-4.5" class="st1" width="26" height="33"/>
				</g>
			</g>
		</g>
	</g>
	<g>
		<g>
			<defs>
				<path id="SVGID_5_" d="M12,11.2c-1.3,0-2.4-1.1-2.4-2.5s1.1-2.5,2.4-2.5s2.4,1.1,2.4,2.5S13.3,11.2,12,11.2L12,11.2z M12,5.4
					c-1.8,0-3.2,1.5-3.2,3.3S10.2,12,12,12s3.2-1.5,3.2-3.3c0-0.9-0.3-1.7-0.9-2.3C13.7,5.8,12.8,5.4,12,5.4z"/>
			</defs>
			<clipPath id="SVGID_6_">
				<use xlink:href="#SVGID_5_"  style="overflow:visible;"/>
			</clipPath>
			<g class="st2">
				<g>
					<defs>
						<rect id="SVGID_7_" x="-655" y="-1062.5" width="1280" height="1989"/>
					</defs>
					<clipPath id="SVGID_8_">
						<use xlink:href="#SVGID_7_"  style="overflow:visible;"/>
					</clipPath>
					<rect x="3.8" y="0.4" class="st3" width="16.4" height="16.6"/>
				</g>
			</g>
		</g>
	</g>
</g>
</svg>
