<svg id="Capa_1" enable-background="new 0 0 512 512" height="512" viewBox="0 0 512 512" width="512" xmlns="http://www.w3.org/2000/svg"><g><g><g><g><g><path d="m451.13 456.353h-390.26c-14.792 0-26.783-11.991-26.783-26.783v-280.707c0-14.792 11.991-26.783 26.783-26.783h390.26c14.792 0 26.783 11.991 26.783 26.783v280.706c0 14.792-11.991 26.784-26.783 26.784z" fill="#f5f5f5"/><path d="m451.13 122.079h-41.24c14.792 0 26.783 11.991 26.783 26.783v280.707c0 14.792-11.991 26.783-26.783 26.783h41.24c14.792 0 26.783-11.991 26.783-26.783v-280.706c0-14.792-11.991-26.784-26.783-26.784z" fill="#eaeaea"/><path d="m70.355 374.177v-208.761c0-3.904 3.165-7.068 7.068-7.068h357.153c3.904 0 7.068 3.165 7.068 7.068v208.761c0 3.904-3.165 7.068-7.068 7.068h-357.152c-3.904.001-7.069-3.164-7.069-7.068z" fill="#bed8fb"/><path d="m462.831 479.484h-413.662c-27.155 0-49.169-22.014-49.169-49.17 0-7.069 5.731-12.8 12.8-12.8h486.4c7.069 0 12.8 5.731 12.8 12.8 0 27.156-22.014 49.17-49.169 49.17z" fill="#daeaef"/><path d="m499.2 417.514h-28.438v12.8c0 27.156-22.014 49.17-49.169 49.17h41.238c27.156 0 49.169-22.014 49.169-49.17 0-7.069-5.731-12.8-12.8-12.8z" fill="#c9e2e7"/></g><path d="m173.792 417.514v15.492c0 8.556 6.936 15.492 15.492 15.492h133.431c8.556 0 15.492-6.936 15.492-15.492v-15.492z" fill="#a8d0d5"/></g></g><g><g><path d="m279.254 260.96-1.569-8.396c-.975-5.219-5.693-8.89-10.992-8.551-4.092.261-7.916-1.909-9.905-5.494-1.602-2.888-3.399-5.639-5.371-8.237-2.485-3.275-2.936-7.658-1.039-11.305l.001-.003c2.451-4.71 1-10.509-3.381-13.51l-7.046-4.827c-4.38-3.001-10.311-2.26-13.819 1.726l-.002.002c-2.716 3.086-6.966 4.248-10.918 3.113-3.135-.9-6.349-1.583-9.621-2.034-4.062-.559-7.467-3.342-8.701-7.252-1.598-5.063-6.724-8.138-11.943-7.162l-8.396 1.569c-5.219.975-8.89 5.693-8.551 10.992.261 4.092-1.909 7.916-5.494 9.905-2.888 1.602-5.639 3.399-8.237 5.371-3.275 2.485-7.658 2.936-11.305 1.039l-.003-.002c-4.71-2.451-10.509-1-13.51 3.381l-4.827 7.046c-3.001 4.38-2.26 10.311 1.726 13.819l.003.002c3.086 2.716 4.248 6.966 3.113 10.918-.901 3.135-1.583 6.349-2.034 9.621-.559 4.062-3.342 7.466-7.252 8.7-5.064 1.598-8.138 6.724-7.162 11.943l1.569 8.396c.975 5.219 5.693 8.889 10.992 8.551 4.092-.261 7.916 1.909 9.905 5.494 1.601 2.888 3.399 5.639 5.371 8.237 2.485 3.275 2.936 7.658 1.039 11.305l-.001.003c-2.451 4.71-1 10.509 3.381 13.51l7.046 4.827c4.38 3.001 10.311 2.26 13.819-1.726l.002-.002c2.716-3.086 6.966-4.248 10.918-3.113 3.135.901 6.349 1.583 9.621 2.034 4.062.559 7.466 3.342 8.7 7.252 1.598 5.064 6.724 8.138 11.943 7.162l8.396-1.569c5.219-.975 8.889-5.693 8.551-10.992-.261-4.092 1.909-7.916 5.495-9.905 2.888-1.602 5.639-3.399 8.237-5.371 3.275-2.485 7.658-2.937 11.305-1.039l.003.001c4.71 2.451 10.509 1 13.51-3.381l4.827-7.046c3.001-4.38 2.26-10.311-1.726-13.819l-.002-.002c-3.086-2.716-4.248-6.966-3.113-10.918.901-3.135 1.583-6.349 2.034-9.621.559-4.062 3.342-7.466 7.252-8.7 5.062-1.596 8.137-6.722 7.161-11.942z" fill="#3693bd"/><ellipse cx="196.137" cy="272.147" fill="#daeaef" rx="37.314" ry="37.345" transform="matrix(.565 -.825 .825 .565 -139.227 280.18)"/><g><g><g><path d="m279.254 260.96-1.569-8.396c-.975-5.219-5.693-8.89-10.992-8.551-4.092.261-7.916-1.909-9.905-5.494-1.602-2.888-3.399-5.639-5.371-8.237-2.485-3.275-2.936-7.658-1.039-11.305l.001-.003c2.451-4.71 1-10.509-3.381-13.51l-7.046-4.827c-4.38-3.001-10.311-2.26-13.819 1.726l-.002.002c-2.716 3.086-6.966 4.248-10.918 3.113-3.135-.9-6.349-1.583-9.621-2.034-.606-.083-1.198-.217-1.769-.396 17.475 13.01 30.093 32.643 33.698 56.052 5.526 35.882-12.393 70.635-42.556 87.91.156.353.295.716.413 1.09 1.598 5.064 6.724 8.138 11.943 7.162l8.396-1.569c5.219-.975 8.889-5.693 8.551-10.992-.261-4.092 1.909-7.916 5.495-9.905 2.888-1.602 5.639-3.399 8.237-5.371 3.275-2.485 7.658-2.937 11.305-1.039l.003.001c4.71 2.451 10.509 1 13.51-3.381l4.827-7.046c3.001-4.38 2.26-10.311-1.726-13.819l-.002-.002c-3.086-2.716-4.248-6.966-3.113-10.918.901-3.135 1.583-6.349 2.034-9.621.559-4.062 3.342-7.466 7.252-8.7 5.065-1.594 8.14-6.72 7.164-11.94z" fill="#0582b0"/></g></g></g></g><g><path d="m486.559 126.491c-5.467-.664-10.084-4.406-11.814-9.635-1.453-4.394-3.221-8.644-5.276-12.725-2.484-4.933-1.884-10.856 1.522-15.204l.005-.007c4.455-5.687 3.963-13.805-1.145-18.913l-8.22-8.22c-5.108-5.108-13.226-5.6-18.913-1.145l-.007.005c-4.348 3.406-10.271 4.006-15.204 1.522-4.081-2.055-8.331-3.823-12.724-5.276-5.229-1.729-8.971-6.347-9.635-11.814-.872-7.171-6.959-12.563-14.183-12.563h-11.625c-7.224 0-13.311 5.392-14.183 12.564-.665 5.467-4.406 10.084-9.635 11.814-4.394 1.453-8.644 3.221-12.725 5.276-4.933 2.484-10.856 1.884-15.204-1.522l-.007-.006c-5.687-4.455-13.805-3.963-18.913 1.145l-8.22 8.22c-5.108 5.108-5.6 13.226-1.145 18.913l.006.007c3.406 4.348 4.006 10.271 1.522 15.204-2.055 4.081-3.823 8.331-5.276 12.725-1.729 5.229-6.346 8.971-11.814 9.635-7.171.872-12.564 6.959-12.564 14.183v11.625c0 7.224 5.392 13.311 12.564 14.183 5.467.665 10.084 4.406 11.814 9.635 1.453 4.394 3.221 8.644 5.276 12.725 2.484 4.933 1.884 10.856-1.522 15.204l-.005.007c-4.455 5.687-3.963 13.805 1.145 18.913l8.22 8.22c5.108 5.108 13.226 5.6 18.913 1.145l.007-.005c4.348-3.406 10.271-4.006 15.204-1.522 4.081 2.055 8.331 3.823 12.725 5.276 5.229 1.729 8.971 6.347 9.635 11.814.872 7.171 6.959 12.564 14.183 12.564h11.625c7.224 0 13.311-5.392 14.183-12.563.665-5.467 4.406-10.084 9.635-11.814 4.393-1.453 8.644-3.221 12.725-5.276 4.933-2.484 10.856-1.884 15.204 1.522l.007.005c5.687 4.455 13.805 3.963 18.913-1.145l8.22-8.22c5.108-5.108 5.6-13.226 1.145-18.913l-.005-.007c-3.406-4.348-4.006-10.271-1.522-15.204 2.055-4.081 3.823-8.331 5.276-12.725 1.729-5.229 6.347-8.971 11.814-9.635 7.171-.872 12.564-6.959 12.564-14.183v-11.625c-.002-7.225-5.395-13.312-12.566-14.184z" fill="#e7a561"/><ellipse cx="385.152" cy="146.487" fill="#daeaef" rx="54.633" ry="54.678" transform="matrix(.707 -.707 .707 .707 9.227 315.249)"/><g><path d="m486.559 126.491c-5.467-.664-10.084-4.406-11.814-9.635-1.453-4.394-3.221-8.644-5.276-12.725-2.484-4.933-1.884-10.856 1.522-15.204l.005-.007c4.455-5.687 3.963-13.805-1.145-18.913l-8.22-8.22c-5.108-5.108-13.226-5.6-18.913-1.145l-.007.005c-4.348 3.406-10.271 4.006-15.204 1.522-4.081-2.055-8.331-3.822-12.724-5.276-.242-.08-.481-.166-.717-.259 27.597 21.567 45.003 55.571 43.79 93.582-1.116 34.963-18.262 66.125-44.274 86.321.391-.17.791-.323 1.201-.459 4.393-1.453 8.644-3.221 12.725-5.276 4.933-2.484 10.856-1.884 15.204 1.522l.007.005c5.687 4.455 13.805 3.963 18.913-1.145l8.22-8.22c5.108-5.108 5.6-13.226 1.145-18.913l-.005-.007c-3.406-4.348-4.006-10.271-1.522-15.204 2.055-4.081 3.823-8.331 5.276-12.725 1.729-5.229 6.347-8.971 11.814-9.635 7.171-.872 12.564-6.959 12.564-14.183v-11.625c-.001-7.222-5.394-13.309-12.565-14.181z" fill="#e49542"/></g></g></g></g></g></svg>