<svg id="Capa_1" enable-background="new 0 0 512 512" height="512" viewBox="0 0 512 512" width="512" xmlns="http://www.w3.org/2000/svg"><g><g><g><g><g><path d="m436.564 364.579h-361.128v-227.742c0-10.853 8.798-19.652 19.652-19.652h321.825c10.853 0 19.652 8.798 19.652 19.652v227.742z" fill="#a8d0d5"/><path d="m386.089 364.579h-260.178v-287.157c0-10.682 8.659-19.341 19.341-19.341h221.497c10.682 0 19.341 8.659 19.341 19.341v287.157z" fill="#fff8e1"/><path d="m366.748 58.081h-41.238c10.682 0 19.341 8.659 19.341 19.341v287.156h41.238v-287.156c0-10.681-8.659-19.341-19.341-19.341z" fill="#fdf3c4"/><path d="m486.111 453.919h-460.222c-14.298 0-25.889-11.591-25.889-25.889v-121.8c0-14.298 11.591-25.889 25.889-25.889h460.222c14.298 0 25.889 11.591 25.889 25.889v121.8c0 14.298-11.591 25.889-25.889 25.889z" fill="#3693bd"/><path d="m486.111 280.341h-15.35v147.689c0 14.298-11.591 25.889-25.889 25.889h41.238c14.298 0 25.889-11.591 25.889-25.889v-121.8c.001-14.298-11.59-25.889-25.888-25.889z" fill="#0582b0"/><path d="m393.842 391.418h-275.684c-9.297 0-16.834 7.537-16.834 16.834v45.666h309.353v-45.666c0-9.296-7.538-16.834-16.835-16.834z" fill="#818181"/><path d="m393.842 391.418h-41.238c9.297 0 16.834 7.537 16.834 16.835v45.666h41.238v-45.666c.001-9.297-7.537-16.835-16.834-16.835z" fill="#595959"/></g></g><path d="m459.112 353.872c-11.382 0-20.609-9.227-20.609-20.609 0-11.382 9.227-20.609 20.609-20.609 11.382 0 20.609 9.227 20.609 20.609 0 11.382-9.227 20.609-20.609 20.609z" fill="#fcdd2e"/></g><g><g><path d="m345.283 130.812h-136.671c-4.268 0-7.726-3.459-7.726-7.726 0-4.268 3.459-7.726 7.726-7.726h136.671c4.268 0 7.726 3.459 7.726 7.726s-3.459 7.726-7.726 7.726z" fill="#aad540"/></g><g><path d="m345.283 179.614h-178.566c-4.268 0-7.726-3.459-7.726-7.726 0-4.268 3.459-7.726 7.726-7.726h178.565c4.268 0 7.726 3.459 7.726 7.726.001 4.267-3.458 7.726-7.725 7.726z" fill="#aad540"/></g><g><path d="m345.283 228.414h-178.566c-4.268 0-7.726-3.459-7.726-7.726s3.459-7.726 7.726-7.726h178.565c4.268 0 7.726 3.459 7.726 7.726s-3.458 7.726-7.725 7.726z" fill="#aad540"/></g></g></g></g></svg>