<?xml version="1.0" encoding="iso-8859-1"?>
<!-- Generator: Adobe Illustrator 19.0.0, SVG Export Plug-In . SVG Version: 6.00 Build 0)  -->
<svg version="1.1" id="Layer_1" xmlns="http://www.w3.org/2000/svg" xmlns:xlink="http://www.w3.org/1999/xlink" x="0px" y="0px"
	 viewBox="0 0 512 512" style="enable-background:new 0 0 512 512;" xml:space="preserve">
<polygon style="fill:#ABB9C6;" points="346.397,478.935 165.605,478.935 178.512,448.734 183.427,437.251 194.152,412.16 
	317.85,412.16 328.575,437.251 333.49,448.734 "/>
<polygon style="fill:#93A0AA;" points="328.575,437.251 183.427,437.251 194.152,412.16 317.85,412.16 "/>
<path style="fill:#B6C7D3;" d="M393.458,490.422H118.536l0,0c9.791-14.369,26.053-22.967,43.441-22.967h188.041
	C367.405,467.455,383.668,476.053,393.458,490.422L393.458,490.422z"/>
<path style="fill:#ABB9C6;" d="M511.995,55.098v326.986c0,18.511-14.997,33.52-33.508,33.52H33.51
	c-18.511,0-33.508-15.009-33.508-33.52V55.098c0-18.511,14.997-33.52,33.508-33.52h444.977
	C496.998,21.578,511.995,36.587,511.995,55.098z"/>
<path style="fill:#C5D6E2;" d="M511.995,55.098v326.986c0,18.511-14.997,33.52-33.508,33.52H180.898l24.551-59.874L342.468,21.578
	h136.019C496.998,21.578,511.995,36.587,511.995,55.098z"/>
<path style="fill:#B8E9F2;" d="M511.995,55.098V355.73H0.002V55.098c0-18.511,14.997-33.52,33.508-33.52h444.977
	C496.998,21.578,511.995,36.587,511.995,55.098z"/>
<g>
	<path id="SVGCleanerId_0" style="fill:#D4F7FC;" d="M511.995,55.098V355.73H205.449L342.468,21.578h136.019
		C496.998,21.578,511.995,36.587,511.995,55.098z"/>
</g>
<path style="fill:#93A0AA;" d="M256.001,393.212c-3.448,0-6.634-2.135-7.958-5.317c-1.465-3.521-0.359-7.694,2.622-10.058
	c6.24-4.949,15.53,0.968,13.723,8.703C263.487,390.386,259.966,393.212,256.001,393.212z"/>
<g>
	<path id="SVGCleanerId_0_1_" style="fill:#D4F7FC;" d="M511.995,55.098V355.73H205.449L342.468,21.578h136.019
		C496.998,21.578,511.995,36.587,511.995,55.098z"/>
</g>
<g>
	<path id="SVGCleanerId_0_2_" style="fill:#D4F7FC;" d="M511.995,55.098V355.73H205.449L342.468,21.578h136.019
		C496.998,21.578,511.995,36.587,511.995,55.098z"/>
</g>
<path style="fill:#ACDCE2;" d="M409.597,62.918h-102.4H204.798h-102.4H0v91.197c0,28.276,22.923,51.199,51.199,51.199l0,0
	c28.276,0,51.199-22.923,51.199-51.199c0,28.276,22.923,51.199,51.199,51.199l0,0c28.276,0,51.199-22.923,51.199-51.199
	c0,28.276,22.923,51.199,51.199,51.199l0,0c28.276,0,51.199-22.923,51.199-51.199c0,28.276,22.923,51.199,51.199,51.199l0,0
	c28.276,0,51.199-22.923,51.199-51.199c0,28.276,22.923,51.199,51.199,51.199l0,0c28.276,0,51.199-22.923,51.199-51.199V62.918
	H409.597z"/>
<path style="fill:#F75757;" d="M409.597,21.578H307.198h-102.4h-102.4H0v91.197c0,28.276,22.923,51.199,51.199,51.199l0,0
	c28.276,0,51.199-22.923,51.199-51.199c0,28.276,22.923,51.199,51.199,51.199l0,0c28.276,0,51.199-22.923,51.199-51.199
	c0,28.276,22.923,51.199,51.199,51.199l0,0c28.276,0,51.199-22.923,51.199-51.199c0,28.276,22.923,51.199,51.199,51.199l0,0
	c28.276,0,51.199-22.923,51.199-51.199c0,28.276,22.923,51.199,51.199,51.199l0,0c28.276,0,51.199-22.923,51.199-51.199V21.578
	H409.597z"/>
<g>
	<path style="fill:#F2F2F2;" d="M409.597,21.578v91.197c0,28.276-22.923,51.199-51.199,51.199l0,0
		c-28.276,0-51.199-22.923-51.199-51.199V21.578"/>
	<path style="fill:#F2F2F2;" d="M204.798,21.578v91.197c0,28.276-22.923,51.199-51.199,51.199l0,0
		c-28.276,0-51.199-22.923-51.199-51.199V21.578"/>
</g>
<path style="fill:#E6E6E6;" d="M409.604,112.773c0,28.283-22.932,51.204-51.204,51.204c-14.136,0-26.94-5.73-36.207-14.997
	s-14.997-22.059-14.997-36.207C307.196,112.773,409.604,112.773,409.604,112.773z"/>
<g>
	<path style="fill:#DB4949;" d="M512,112.773c0,28.283-22.921,51.204-51.204,51.204c-14.136,0-26.928-5.73-36.195-14.997
		c-9.267-9.267-14.997-22.059-14.997-36.207C409.604,112.773,512,112.773,512,112.773z"/>
	<path style="fill:#DB4949;" d="M307.196,112.773c0,28.283-22.921,51.204-51.192,51.204c-14.136,0-26.94-5.73-36.207-14.997
		c-9.267-9.267-14.997-22.059-14.997-36.207C204.8,112.773,307.196,112.773,307.196,112.773z"/>
</g>
<path style="fill:#E6E6E6;" d="M204.8,112.773c0,28.283-22.921,51.204-51.192,51.204c-14.147,0-26.94-5.73-36.207-14.997
	s-14.997-22.059-14.997-36.207C102.403,112.773,204.8,112.773,204.8,112.773z"/>
<path style="fill:#DB4949;" d="M102.403,112.773c0,28.283-22.921,51.204-51.204,51.204c-14.136,0-26.94-5.73-36.195-14.997
	c-9.267-9.267-14.997-22.059-14.997-36.207C0.007,112.773,102.403,112.773,102.403,112.773z"/>
<g>
</g>
<g>
</g>
<g>
</g>
<g>
</g>
<g>
</g>
<g>
</g>
<g>
</g>
<g>
</g>
<g>
</g>
<g>
</g>
<g>
</g>
<g>
</g>
<g>
</g>
<g>
</g>
<g>
</g>
</svg>
