<?xml version="1.0" encoding="utf-8"?>
<!-- Generator: Adobe Illustrator 24.0.1, SVG Export Plug-In . SVG Version: 6.00 Build 0)  -->
<svg version="1.1" id="Layer_1" xmlns="http://www.w3.org/2000/svg" xmlns:xlink="http://www.w3.org/1999/xlink" x="0px" y="0px"
	 viewBox="0 0 512 512" style="enable-background:new 0 0 512 512;" xml:space="preserve">
<style type="text/css">
	.st0{fill:#D80027;}
	.st1{fill:#F0F0F0;}
</style>
<circle class="st0" cx="256" cy="256" r="256"/>
<g>
	<polygon class="st1" points="350.1,182.1 383.3,227.8 437,210.4 403.8,256 436.9,301.7 383.2,284.3 350,329.9 350,273.5 296.3,256 
		350.1,238.6 	"/>
	<path class="st1" d="M259.6,370.3c-63.1,0-114.3-51.2-114.3-114.3s51.2-114.3,114.3-114.3c19.7,0,38.2,5,54.4,13.7
		c-25.4-24.8-60-40.1-98.3-40.1C138,115.4,75,178.3,75,256s63,140.6,140.6,140.6c38.3,0,72.9-15.3,98.3-40.1
		C297.8,365.3,279.2,370.3,259.6,370.3z"/>
</g>
</svg>
